<svg width="796" height="1057" viewBox="0 0 796 1057" fill="none" xmlns="http://www.w3.org/2000/svg">
<path d="M51 1057V199.5H256.8V546.175H398.9C422.583 546.175 444.225 541.275 463.825 531.475C484.242 521.675 500.167 506.975 511.6 487.375C523.033 467.775 528.75 444.909 528.75 418.775V199.5H734.55V420C734.55 474.717 721.483 523.717 695.35 567C669.217 610.284 634.917 644.992 592.45 671.125L685.55 867.125C688 873.659 692.083 878.559 697.8 881.825C704.333 885.092 711.275 886.725 718.625 886.725H795.8V1057H676.975C632.058 1057 595.717 1048.43 567.95 1031.28C540.183 1014.13 518.95 990.442 504.25 960.225L387.875 717.675C381.342 717.675 375.217 717.675 369.5 717.675C363.783 717.675 357.658 717.675 351.125 717.675H256.8V1057H51Z" fill="#2B2B2B"/>
<path d="M2.98172e-05 1057V199.5H205.8V546.175H347.9C371.583 546.175 393.225 541.275 412.825 531.475C433.242 521.675 449.167 506.975 460.6 487.375C472.033 467.775 477.75 444.909 477.75 418.775V199.5H683.55V420C683.55 474.717 670.483 523.717 644.35 567C618.217 610.284 583.917 644.992 541.45 671.125L634.55 867.125C637 873.659 641.083 878.559 646.8 881.825C653.333 885.092 660.275 886.725 667.625 886.725H744.8V1057H625.975C581.058 1057 544.717 1048.43 516.95 1031.28C489.183 1014.13 467.95 990.442 453.25 960.225L336.875 717.675C330.342 717.675 324.217 717.675 318.5 717.675C312.783 717.675 306.658 717.675 300.125 717.675H205.8V1057H2.98172e-05Z" fill="#00CFC1"/>
<path d="M638.543 -6.45185e-06C691.562 -0.000500093 734.543 42.9798 734.544 95.9991L734.545 202.815L0.0075646 202.822L0.00657009 96.0059C0.00607644 42.9866 42.9863 0.00553853 96.0057 0.00504489L638.543 -6.45185e-06Z" fill="#2B2B2B"/>
</svg>
