<svg width="1096" height="914" viewBox="0 0 1096 914" fill="none" xmlns="http://www.w3.org/2000/svg">
<path d="M243.775 913.8C200.492 913.8 160.067 905.225 122.5 888.075C85.75 870.925 55.9417 844.792 33.075 809.675C11.025 774.558 -5.32717e-07 730.458 -5.32717e-07 677.375V270.675H189.875V701.875C189.875 711.675 192.325 720.658 197.225 728.825C202.125 736.992 208.658 743.525 216.825 748.425C224.992 753.325 233.975 755.775 243.775 755.775C253.575 755.775 262.558 753.325 270.725 748.425C278.892 743.525 285.425 736.992 290.325 728.825C295.225 720.658 297.675 711.675 297.675 701.875V492.4C297.675 441.767 308.292 398.892 329.525 363.775C350.758 328.658 379.75 302.117 416.5 284.15C454.067 265.367 496.125 255.975 542.675 255.975C589.225 255.975 630.875 265.367 667.625 284.15C704.375 302.117 733.367 328.658 754.6 363.775C775.833 398.892 786.45 441.767 786.45 492.4V701.875C786.45 711.675 788.9 720.658 793.8 728.825C798.7 736.992 805.233 743.525 813.4 748.425C822.383 753.325 831.775 755.775 841.575 755.775C851.375 755.775 860.358 753.325 868.525 748.425C876.692 743.525 883.225 736.992 888.125 728.825C893.025 720.658 895.475 711.675 895.475 701.875V270.675H1085.35V677.375C1085.35 730.458 1073.92 774.558 1051.05 809.675C1029 844.792 999.192 870.925 961.625 888.075C924.875 905.225 884.858 913.8 841.575 913.8C798.292 913.8 757.867 905.225 720.3 888.075C683.55 870.925 653.742 844.792 630.875 809.675C608.008 774.558 596.575 730.458 596.575 677.375V469.125C596.575 458.508 594.125 449.117 589.225 440.95C584.325 432.783 577.792 426.25 569.625 421.35C561.458 416.45 552.475 414 542.675 414C532.875 414 523.483 416.45 514.5 421.35C506.333 426.25 499.8 432.783 494.9 440.95C490 449.117 487.55 458.508 487.55 469.125V677.375C487.55 730.458 476.117 774.558 453.25 809.675C431.2 844.792 401.392 870.925 363.825 888.075C327.075 905.225 287.058 913.8 243.775 913.8Z" fill="url(#paint0_linear_32_2)"/>
<path d="M990.35 212.3C961.017 212.3 935.717 202.033 914.45 181.5C893.917 160.233 883.65 135.3 883.65 106.7C883.65 77.3666 893.917 52.4333 914.45 31.9C935.717 10.6333 961.017 -3.45111e-05 990.35 -3.45111e-05C1018.95 -3.45111e-05 1043.52 10.6333 1064.05 31.9C1085.32 52.4333 1095.95 77.3666 1095.95 106.7C1095.95 125.767 1091.18 143.367 1081.65 159.5C1072.12 175.633 1059.28 188.467 1043.15 198C1027.75 207.533 1010.15 212.3 990.35 212.3Z" fill="#00CFC1"/>
<defs>
<linearGradient id="paint0_linear_32_2" x1="311.95" y1="899.1" x2="1016.45" y2="11.6" gradientUnits="userSpaceOnUse">
<stop stop-color="#6C5CE7"/>
<stop offset="1" stop-color="#00CFC1"/>
</linearGradient>
</defs>
</svg>
