<svg role="img" viewBox="0 0 24 24" xmlns="http://www.w3.org/2000/svg"><title>RapidKit</title><path d="M8.305 18.457V8.408H10.717V12.471H12.382C12.66 12.471 12.913 12.413 13.143 12.298C13.382 12.184 13.569 12.011 13.703 11.782C13.837 11.552 13.904 11.284 13.904 10.978V8.408H16.316V10.992C16.316 11.633 16.163 12.208 15.856 12.715C15.55 13.222 15.148 13.629 14.651 13.935L15.742 16.232C15.77 16.309 15.818 16.366 15.885 16.404C15.962 16.442 16.043 16.462 16.129 16.462H17.034V18.457H15.641C15.115 18.457 14.689 18.356 14.363 18.156C14.038 17.955 13.789 17.677 13.617 17.323L12.253 14.481C12.177 14.481 12.105 14.481 12.038 14.481C11.971 14.481 11.899 14.481 11.822 14.481H10.717V18.457H8.305Z" fill="#1C1C1C"/><path d="M7.708 18.457V8.408H10.119V12.471H11.785C12.062 12.471 12.316 12.413 12.546 12.298C12.785 12.184 12.971 12.011 13.105 11.782C13.239 11.552 13.306 11.284 13.306 10.978V8.408H15.718V10.992C15.718 11.633 15.565 12.208 15.259 12.715C14.952 13.222 14.55 13.629 14.053 13.935L15.144 16.232C15.173 16.309 15.22 16.366 15.287 16.404C15.364 16.442 15.445 16.462 15.531 16.462H16.436V18.457H15.043C14.517 18.457 14.091 18.356 13.766 18.156C13.44 17.955 13.192 17.677 13.019 17.323L11.655 14.481C11.579 14.481 11.507 14.481 11.44 14.481C11.373 14.481 11.301 14.481 11.225 14.481H10.119V18.457H7.708Z" fill="#00CFC1"/><path d="M15.191 6.07C15.812 6.07 16.316 6.574 16.316 7.195L16.316 8.447L7.708 8.447L7.708 7.195C7.708 6.574 8.211 6.07 8.833 6.07L15.191 6.07Z" fill="#1C1C1C"/></svg>
