<svg width="256" height="256" viewBox="0 0 256 256" xmlns="http://www.w3.org/2000/svg" role="img" aria-label="Spring Boot">
  <defs>
    <linearGradient id="springGradient" x1="0" y1="0" x2="1" y2="1">
      <stop offset="0%" stop-color="#84CC16"/>
      <stop offset="100%" stop-color="#16A34A"/>
    </linearGradient>
  </defs>
  <circle cx="128" cy="128" r="120" fill="url(#springGradient)"/>
  <path d="M62 133c22-9 38-25 47-47 3-7 6-16 8-26 3 14 8 26 15 36 6 9 14 16 23 22 13 8 28 12 44 14-18 6-32 14-42 26-11 12-18 29-22 51-5-20-13-36-24-47-11-12-27-21-49-29z" fill="#ffffff" opacity="0.96"/>
  <circle cx="158" cy="93" r="10" fill="#14532D"/>
</svg>
