<svg width="1120" height="935" viewBox="0 0 1120 935" fill="none" xmlns="http://www.w3.org/2000/svg">
<path d="M257.25 934.925C212.333 934.925 170.275 925.942 131.075 907.975C91.875 890.008 60.025 863.467 35.525 828.35C11.8417 792.417 9.12696e-07 747.5 9.12696e-07 693.6V288.125H211.925V715.65C211.925 724.633 213.967 732.8 218.05 740.15C222.133 746.683 227.85 751.992 235.2 756.075C242.55 760.158 249.9 762.2 257.25 762.2C265.417 762.2 272.767 760.158 279.3 756.075C285.833 751.992 291.142 746.683 295.225 740.15C299.308 732.8 301.35 724.633 301.35 715.65V514.75C301.35 462.483 313.192 418.383 336.875 382.45C360.558 346.517 391.592 319.567 429.975 301.6C469.175 282.817 512.05 273.425 558.6 273.425C605.967 273.425 648.842 282.817 687.225 301.6C726.425 319.567 757.867 346.517 781.55 382.45C805.233 418.383 817.075 462.483 817.075 514.75V715.65C817.075 724.633 819.117 732.8 823.2 740.15C827.283 746.683 832.592 751.992 839.125 756.075C846.475 760.158 853.825 762.2 861.175 762.2C870.158 762.2 877.917 760.158 884.45 756.075C890.983 751.992 896.292 746.683 900.375 740.15C904.458 732.8 906.5 724.633 906.5 715.65V288.125H1119.65V693.6C1119.65 747.5 1107.4 792.417 1082.9 828.35C1059.22 863.467 1027.78 890.008 988.575 907.975C949.375 925.942 906.908 934.925 861.175 934.925C817.075 934.925 775.425 925.942 736.225 907.975C697.025 890.008 665.175 863.467 640.675 828.35C616.175 792.417 603.925 747.5 603.925 693.6V491.475C603.925 481.675 601.883 473.508 597.8 466.975C593.717 460.442 588.408 455.133 581.875 451.05C575.342 446.967 567.583 444.925 558.6 444.925C551.25 444.925 543.9 446.967 536.55 451.05C530.017 455.133 524.708 460.442 520.625 466.975C516.542 473.508 514.5 481.675 514.5 491.475V693.6C514.5 747.5 502.25 792.417 477.75 828.35C453.25 863.467 421.4 890.008 382.2 907.975C343.817 925.942 302.167 934.925 257.25 934.925Z" fill="url(#paint0_linear_43_170)"/>
<circle cx="1011.75" cy="106" r="106" fill="#00CFC1"/>
<defs>
<linearGradient id="paint0_linear_43_170" x1="-61.25" y1="487.708" x2="1179.75" y2="492.292" gradientUnits="userSpaceOnUse">
<stop stop-color="#6C5CE7"/>
<stop offset="1" stop-color="#00CFC1"/>
</linearGradient>
</defs>
</svg>
